<svg width="165" height="24" viewBox="0 0 549 80" fill="none" xmlns="http://www.w3.org/2000/svg">
    <path d="M119.574 0.000213623L106.142 39.9981H82.0703L95.4983 0.000213623H119.574Z" fill="#0239FF"/>
    <path d="M65.2585 59.7629L85.3659 0.000213623H61.3114L41.2041 59.7629H65.2585Z" fill="#0239FF"/>
    <path d="M50.9363 0L50.1711 2.28121C50.1711 2.28121 50.1624 2.3025 50.1581 2.31526L24.0761 80H0L22.3986 13.2915C23.5486 9.86966 20.959 6.34144 17.2972 6.34144H0V0H50.9363Z"
          fill="#0239FF"/>
    <path d="M534.281 15.5264C543.895 15.5264 548.237 21.6517 548.237 31.1111V56H539.476V32.2741C539.476 26.4589 537.227 23.3575 532.652 23.3575C527.07 23.3575 524.279 27.5444 524.279 33.3596V56H515.517V32.2741C515.517 26.4589 513.269 23.3575 508.694 23.3575C503.189 23.3575 500.32 28.1647 500.32 33.9024V56H491.559V16.5344H500.088V20.2561H501.638C503.499 17.2322 507.066 15.5264 511.718 15.5264C516.448 15.5264 519.859 17.1547 521.952 20.4887H523.503C525.907 17.3097 529.396 15.5264 534.281 15.5264Z"
          fill="white"/>
    <path d="M446.264 16.5344H455.025V39.4849C455.025 45.9204 457.894 49.1769 463.709 49.1769C469.99 49.1769 473.789 43.982 473.789 37.469V16.5344H482.55V56H474.021V52.1232H472.471C470.377 54.837 466.966 57.008 461.383 57.008C451.691 57.008 446.264 50.9602 446.264 40.9581V16.5344Z"
          fill="white"/>
    <path d="M429.136 16.5344H439.526V23.9778H429.136V43.7494C429.136 46.8508 430.532 48.4015 434.874 48.4015H439.526V56H434.021C425.415 56 420.375 54.2167 420.375 45.2226V23.9778H413.164V16.5344H420.375V5.05914H429.136V16.5344Z"
          fill="white"/>
    <path d="M408.813 56H400.052V33.0495C400.052 26.614 397.028 23.3575 391.213 23.3575C384.932 23.3575 381.055 28.5524 381.055 35.0654V56H372.294V16.5344H380.823V20.4112H382.374C384.467 17.6974 387.956 15.5264 393.539 15.5264C403.231 15.5264 408.813 21.5742 408.813 31.5763V56Z"
          fill="white"/>
    <path d="M365.703 34.0574V37.0038H336.549C336.782 45.0675 340.504 49.5645 347.637 49.5645C352.366 49.5645 355.08 47.7037 356.243 44.6023H365.16C363.687 51.8131 357.794 57.008 347.559 57.008C335.154 57.008 327.865 48.324 327.865 35.9958C327.865 23.6677 335.231 15.5264 347.327 15.5264C359.112 15.5264 365.703 23.8227 365.703 34.0574ZM347.249 22.5046C341.046 22.5046 337.945 25.9162 336.937 30.4908H356.708C356.166 26.0713 353.064 22.5046 347.249 22.5046Z"
          fill="white"/>
    <path d="M307.792 15.5264C317.407 15.5264 321.749 21.6517 321.749 31.1111V56H312.987V32.2741C312.987 26.4589 310.739 23.3575 306.164 23.3575C300.582 23.3575 297.79 27.5444 297.79 33.3596V56H289.029V32.2741C289.029 26.4589 286.78 23.3575 282.206 23.3575C276.701 23.3575 273.832 28.1647 273.832 33.9024V56H265.07V16.5344H273.599V20.2561H275.15C277.011 17.2322 280.577 15.5264 285.23 15.5264C289.959 15.5264 293.371 17.1547 295.464 20.4887H297.015C299.419 17.3097 302.908 15.5264 307.792 15.5264Z"
          fill="white"/>
    <path d="M238.448 15.5264C250.854 15.5264 258.375 24.2104 258.375 36.2284C258.375 48.324 250.854 57.008 238.448 57.008C226.042 57.008 218.521 48.324 218.521 36.2284C218.521 24.2104 226.042 15.5264 238.448 15.5264ZM238.448 49.5645C246.124 49.5645 249.613 43.2842 249.613 36.2284C249.613 29.3278 246.124 22.9698 238.448 22.9698C230.772 22.9698 227.283 29.3278 227.283 36.2284C227.283 43.2842 230.772 49.5645 238.448 49.5645Z"
          fill="white"/>
    <path d="M157.333 56V0.639587H172.065L183.618 25.7611H185.168L196.644 0.639587H211.22V56H202.381V11.0294H200.83L188.735 37.5465H179.818L167.723 11.0294H166.172V56H157.333Z"
          fill="white"/>
</svg>
